<?xml version="1.0" standalone="no"?>
<!DOCTYPE svg PUBLIC "-//W3C//DTD SVG 20010904//EN"
 "http://www.w3.org/TR/2001/REC-SVG-20010904/DTD/svg10.dtd">
<svg version="1.0" xmlns="http://www.w3.org/2000/svg"
 width="300.000000pt" height="420.000000pt" viewBox="0 0 300.000000 420.000000"
 preserveAspectRatio="xMidYMid meet">
<metadata>
Created by potrace 1.10, written by Peter Selinger 2001-2011
</metadata>
<g transform="translate(0.000000,420.000000) scale(0.100000,-0.100000)"
fill="#000000" stroke="none">
<path d="M1660 3827 c0 -19 5 -37 11 -39 8 -3 6 -14 -5 -37 -24 -46 -10 -53
25 -11 26 31 48 94 37 105 -2 3 -19 8 -36 11 -31 6 -32 6 -32 -29z"/>
<path d="M1275 3819 c-22 -4 -57 -8 -77 -8 -25 -1 -38 -6 -38 -14 0 -26 59
-399 64 -404 2 -2 48 1 101 8 l97 13 -6 30 c-4 16 -8 31 -10 33 -2 3 -32 -1
-66 -7 -34 -6 -63 -10 -65 -8 -2 2 -5 21 -7 43 l-3 40 58 9 c43 7 56 13 52 24
-3 7 -5 23 -5 34 0 16 -5 19 -30 14 -97 -19 -86 -25 -98 51 -8 48 -8 69 0 74
6 4 37 10 70 13 56 7 60 9 54 29 -3 12 -6 25 -6 30 0 9 -32 7 -85 -4z"/>
<path d="M1849 3765 c-36 -20 -71 -103 -67 -162 4 -56 33 -83 102 -90 25 -3
46 -7 46 -8 0 -2 -9 -24 -20 -49 -16 -39 -23 -46 -48 -46 -44 0 -66 21 -60 58
4 27 1 33 -24 41 -15 5 -29 7 -32 3 -10 -17 -17 -82 -11 -101 8 -27 71 -60
129 -67 66 -9 84 14 134 173 44 139 48 163 32 194 -25 45 -137 79 -181 54z
m96 -67 c14 -6 26 -18 26 -27 6 -85 -49 -128 -110 -85 -19 14 -22 23 -18 52
11 63 47 85 102 60z"/>
<path d="M930 3738 c-81 -41 -86 -91 -23 -254 59 -154 100 -186 190 -149 62
26 73 42 73 102 0 55 -3 59 -48 47 -19 -6 -22 -11 -17 -34 5 -22 1 -32 -17
-44 -52 -37 -80 -10 -128 121 -39 110 -37 144 9 157 29 8 35 7 50 -12 15 -20
20 -21 49 -11 l32 11 -22 31 c-43 65 -75 72 -148 35z"/>
<path d="M652 3593 c-75 -49 -82 -57 -69 -72 8 -9 58 -86 112 -171 54 -85 99
-157 101 -159 4 -5 174 102 174 109 0 3 -9 16 -19 29 l-19 25 -51 -37 c-28
-20 -55 -37 -59 -37 -9 0 -42 53 -42 68 0 6 20 22 45 37 37 21 43 29 35 43
-24 42 -24 42 -70 12 -25 -17 -48 -30 -51 -30 -9 0 -69 99 -69 113 0 7 23 25
50 42 28 16 50 34 50 40 -1 11 -25 46 -31 44 -2 0 -41 -25 -87 -56z"/>
<path d="M2151 3624 c-38 -28 -81 -104 -81 -145 0 -31 6 -43 37 -68 21 -17 47
-31 59 -31 33 0 34 -9 6 -51 -30 -45 -65 -52 -100 -19 -26 24 -25 22 -10 55
10 22 9 27 -8 40 -28 22 -33 19 -55 -29 -25 -58 -14 -87 48 -126 58 -37 110
-40 140 -7 29 31 141 217 154 255 9 25 7 37 -6 59 -37 64 -138 100 -184 67z
m109 -80 l25 -24 -20 -37 c-29 -53 -47 -61 -89 -40 -29 13 -36 22 -36 46 0 17
11 42 26 61 30 35 53 34 94 -6z"/>
<path d="M1425 3259 c-439 -32 -847 -323 -1014 -723 -31 -74 -64 -188 -77
-266 -16 -97 -2 -460 18 -460 6 0 8 -9 5 -20 -3 -11 -1 -20 3 -20 5 0 7 -9 5
-20 -3 -13 0 -18 7 -14 7 5 9 1 5 -9 -3 -10 -2 -17 4 -17 6 0 8 -9 4 -21 -5
-15 -4 -19 4 -15 6 4 11 0 11 -8 0 -23 1 -24 42 -100 21 -37 35 -73 31 -79 -3
-6 -1 -7 5 -3 11 6 14 1 11 -20 0 -3 6 -11 14 -17 7 -7 36 -41 64 -77 142
-182 352 -333 553 -398 74 -24 236 -57 325 -66 161 -17 401 35 580 123 210
104 376 254 488 439 58 94 43 85 -23 -15 -106 -159 -288 -314 -475 -405 -87
-42 -196 -81 -260 -93 -241 -44 -320 -41 -585 20 -91 22 -251 101 -345 172
-255 192 -423 467 -466 762 -19 133 -7 364 26 481 52 188 171 393 298 513 171
161 433 292 654 327 98 16 304 13 401 -5 273 -52 533 -207 691 -412 103 -132
94 -122 74 -88 -59 102 -209 258 -320 333 -224 152 -483 221 -758 201z"/>
<path d="M1340 3205 c-356 -62 -675 -304 -831 -630 -26 -55 -60 -145 -75 -200
-26 -92 -28 -114 -28 -285 0 -169 2 -194 27 -283 33 -122 99 -264 171 -365 69
-97 189 -217 207 -207 8 5 10 4 5 -3 -17 -28 201 -157 349 -206 193 -65 442
-74 635 -23 429 112 754 460 836 896 24 129 15 363 -20 491 -49 179 -141 342
-270 478 -167 177 -387 296 -625 337 -101 18 -278 18 -381 0z m193 -13 c-2 -6
8 -14 22 -18 20 -5 25 -14 31 -52 11 -77 23 -84 24 -14 0 55 2 62 20 62 19 0
20 -4 14 -100 -5 -74 -4 -103 6 -115 8 -10 9 -15 1 -15 -6 0 -11 4 -11 8 0 5
-11 14 -24 20 -18 8 -26 22 -31 54 -12 71 -24 79 -25 16 0 -31 5 -60 10 -63 6
-3 10 -11 10 -18 0 -8 -3 -8 -12 1 -7 7 -19 12 -28 12 -15 0 -16 12 -12 103 5
108 -6 126 -18 30 l-7 -58 -2 51 c-1 62 -30 108 -53 86 -11 -11 -10 -13 7 -10
17 3 20 -5 27 -62 4 -36 9 -82 11 -102 5 -35 3 -38 -19 -38 -21 0 -24 4 -24
40 0 34 -3 40 -21 40 -18 0 -20 -4 -13 -45 6 -41 4 -45 -14 -45 -17 0 -21 8
-26 50 -3 28 -9 73 -12 100 -9 74 -24 61 -17 -14 l6 -64 -33 1 c-36 2 -55 27
-21 27 12 0 21 5 21 10 0 6 -9 10 -20 10 -11 0 -20 7 -20 15 0 8 -7 15 -15 15
-18 0 -18 3 1 -75 11 -44 21 -65 31 -65 11 0 13 7 9 25 -6 22 -3 25 19 25 21
0 25 -5 25 -30 0 -33 -26 -50 -75 -50 -20 0 -26 8 -36 43 -6 23 -15 55 -20 71
-18 59 -12 74 31 86 45 12 57 8 71 -24 9 -20 9 -19 5 4 -2 14 -7 33 -11 42 -5
13 0 19 21 24 18 5 29 3 32 -4 2 -7 10 -12 18 -12 13 0 20 -38 15 -77 -1 -8 9
-13 23 -13 23 0 25 3 20 33 -8 47 -14 61 -21 54 -7 -8 -33 11 -33 24 0 8 63
16 115 14 17 -1 29 -6 28 -13z m217 -11 c237 -53 422 -159 587 -336 68 -72
158 -203 179 -257 6 -16 4 -17 -22 -4 -19 11 -33 12 -46 5 -22 -12 -24 -3 -3
17 24 24 19 70 -10 92 -26 21 -39 20 -107 -7 -16 -6 -28 -8 -28 -4 0 3 -8 0
-17 -8 -10 -8 -32 -22 -49 -31 -30 -17 -32 -17 -49 2 -18 20 -18 21 1 35 10 8
24 15 30 15 7 0 14 6 17 14 3 7 26 22 51 32 25 10 51 29 57 41 10 19 6 26 -41
70 -30 26 -67 63 -84 82 -32 34 -67 54 -99 55 -10 1 -24 12 -31 25 -17 30 -52
50 -91 51 -27 0 -34 -6 -58 -54 -18 -35 -33 -53 -41 -50 -14 5 -11 25 12 101
8 26 7 36 -4 48 -21 21 -41 19 -56 -5 -14 -22 -30 -27 -22 -7 9 24 -42 60 -88
61 -43 1 -43 1 -60 -49 l-16 -50 -4 55 -3 55 -39 2 c-21 0 -43 6 -49 12 -18
18 87 13 183 -8z m-540 -40 c0 -6 -4 -12 -9 -16 -6 -3 -9 -30 -8 -61 2 -53 -4
-65 -38 -77 -6 -2 -5 -14 2 -30 11 -24 15 -26 38 -15 21 10 28 9 35 -2 7 -11
-2 -19 -37 -32 -26 -10 -48 -16 -49 -15 -6 5 -74 169 -74 177 0 12 80 41 92
34 7 -4 8 -2 4 5 -4 6 -2 18 4 26 14 17 40 20 40 6z m592 -9 c12 -12 -18 -159
-37 -180 -10 -11 -21 -11 -54 -2 -48 13 -48 13 -24 123 l17 79 44 -5 c24 -3
48 -9 54 -15z m87 -21 c12 -7 9 -21 -14 -77 -15 -38 -29 -74 -32 -80 -2 -6 7
-14 21 -18 24 -6 34 -25 20 -38 -3 -4 -17 0 -32 8 -15 8 -33 14 -39 14 -7 0
-13 5 -13 11 0 16 64 189 70 189 3 0 11 -4 19 -9z m-844 -62 c-1 -11 -8 -24
-15 -29 -11 -7 -5 -24 28 -80 23 -40 39 -76 36 -81 -14 -23 -36 -4 -71 61 -31
56 -42 69 -57 64 -10 -4 -22 0 -27 7 -5 9 9 22 49 45 31 18 57 33 58 33 0 1 0
-8 -1 -20z m978 0 c60 -31 60 -35 14 -120 -23 -44 -49 -79 -57 -79 -23 0 -80
38 -80 53 0 7 4 17 9 23 5 5 23 37 41 72 34 65 38 69 73 51z m-914 -130 c15
-31 22 -55 16 -52 -15 6 -75 135 -68 147 4 5 11 -1 16 -15 6 -13 22 -49 36
-80z m-160 51 c14 0 33 -23 65 -74 l45 -75 -24 -15 c-13 -9 -29 -16 -34 -16
-5 0 -12 -6 -15 -12 -8 -21 -46 31 -46 64 0 33 -24 63 -42 52 -8 -5 -9 -2 -5
9 3 9 1 31 -5 48 -9 28 -8 34 8 46 16 12 19 11 26 -7 4 -11 16 -20 27 -20z
m1239 -30 c26 -24 26 -28 7 -54 -12 -16 -18 -17 -27 -8 -7 7 -13 21 -13 32 0
33 -11 27 -55 -28 -30 -38 -39 -57 -31 -65 13 -13 44 10 37 28 -9 25 9 34 33
16 l24 -18 -29 -37 c-16 -20 -33 -36 -38 -36 -17 0 -76 42 -76 54 0 13 87 135
104 148 12 8 33 -2 64 -32z m-1312 -2 c4 -6 -2 -19 -15 -29 -19 -16 -20 -21
-9 -38 16 -26 34 -27 47 -3 8 14 12 15 23 4 11 -11 9 -16 -8 -31 l-21 -17 28
-34 c26 -30 27 -36 14 -49 -8 -8 -16 -13 -17 -10 -2 2 -26 31 -53 64 -85 102
-81 90 -43 124 37 34 44 36 54 19z m774 -19 c93 -15 204 -54 290 -102 101 -57
250 -205 307 -307 193 -344 132 -759 -150 -1027 -125 -118 -264 -188 -433
-218 -110 -19 -179 -19 -289 0 -487 85 -797 578 -660 1049 120 413 520 672
935 605z m605 -87 c-35 -51 -31 -56 15 -26 33 22 43 24 55 14 19 -16 19 -30 0
-30 -25 0 -97 -40 -131 -72 -27 -25 -32 -27 -44 -14 -10 13 -7 21 17 49 16 18
40 58 53 89 23 52 26 55 42 41 16 -14 16 -18 -7 -51z m-1440 -43 c33 -28 64
-58 68 -65 8 -15 -26 -67 -51 -78 -17 -7 -136 95 -140 120 -2 18 40 74 56 74
4 0 34 -23 67 -51z m-88 -99 c26 -23 60 -50 76 -60 23 -15 25 -19 13 -29 -11
-9 -20 -10 -36 -1 -12 6 -28 9 -36 6 -7 -3 -20 5 -29 17 -8 12 -20 23 -25 23
-6 1 -17 2 -25 3 -8 0 -15 7 -15 15 0 7 -7 19 -15 26 -20 16 -19 22 7 55 20
26 22 27 29 8 4 -11 29 -39 56 -63z m1650 -107 c-39 -40 -75 -73 -78 -73 -17
0 -19 35 -3 47 23 17 4 38 -34 38 -16 0 -28 6 -29 15 -2 11 24 26 89 51 l93
36 17 -21 c17 -20 15 -23 -55 -93z m-1748 83 c9 -10 8 -16 -4 -26 -8 -7 -15
-18 -15 -26 0 -15 43 -31 47 -18 10 28 23 38 34 27 8 -8 8 -16 -1 -33 -13 -24
-14 -23 18 -39 19 -10 23 -9 34 14 11 24 28 32 41 19 4 -4 -2 -19 -12 -33 -10
-14 -21 -34 -24 -44 -4 -10 -10 -16 -14 -14 -5 2 -45 25 -90 51 l-82 47 22 44
c24 48 29 52 46 31z m1871 -114 c0 -10 -18 -33 -41 -51 -49 -40 -45 -50 10
-22 48 25 57 26 65 6 3 -10 -1 -18 -12 -22 -9 -3 -52 -21 -95 -39 -68 -29 -79
-31 -84 -17 -5 11 9 30 43 60 56 49 53 53 -16 18 -45 -23 -50 -23 -59 -8 -8
14 3 23 73 54 93 43 116 47 116 21z m-1935 -21 c0 -19 12 -28 70 -51 54 -21
71 -33 73 -50 4 -26 -5 -24 -105 21 -61 27 -64 28 -71 9 -5 -12 -12 -16 -20
-11 -10 6 -10 14 1 42 8 19 17 42 21 52 8 25 31 16 31 -12z m2012 -93 l12 -40
-23 21 c-16 15 -22 29 -18 47 6 31 13 24 29 -28z m-1983 -49 c38 -10 73 -22
78 -27 6 -6 5 -25 -3 -51 -13 -45 -24 -49 -89 -32 -19 6 -54 15 -77 21 -32 8
-43 16 -43 30 0 25 -1 25 93 -4 66 -20 79 -22 84 -10 7 20 8 20 -77 41 -64 16
-76 23 -78 42 -3 20 -1 22 20 15 13 -4 54 -15 92 -25z m1974 -26 c8 -28 9 -50
4 -55 -13 -13 -162 -50 -177 -44 -11 4 -41 95 -33 100 7 5 165 44 178 45 11 1
20 -15 28 -46z m57 -135 c7 -53 7 -53 -13 -35 -17 16 -35 18 -116 15 -56 -1
-96 -7 -96 -13 -1 -5 -7 1 -14 15 -8 14 -13 27 -11 31 6 8 68 -2 83 -13 8 -8
12 -6 12 5 0 9 14 17 36 22 57 10 84 26 91 54 l6 26 8 -27 c4 -15 10 -51 14
-80z m-2145 23 c0 -16 10 -21 58 -26 100 -11 112 -15 112 -37 0 -16 -5 -19
-22 -15 -13 3 -53 9 -90 12 -59 6 -68 5 -68 -9 0 -9 -7 -16 -15 -16 -16 0 -18
15 -9 73 7 38 34 53 34 18z m2120 -96 c0 -19 -5 -25 -22 -26 -13 0 -39 -6 -58
-13 l-35 -13 40 -12 c22 -6 48 -11 58 -11 11 0 17 -8 17 -25 0 -25 0 -25 -100
-25 -89 0 -100 2 -100 18 0 15 8 17 62 14 65 -4 74 5 16 17 -47 10 -49 38 -4
47 62 11 53 26 -12 18 -55 -6 -59 -5 -65 15 -5 20 -2 21 99 21 l104 0 0 -25z
m-2044 -35 c78 0 84 -1 84 -21 0 -20 -4 -20 -99 -17 -84 2 -101 6 -104 20 -6
21 3 30 21 23 7 -3 52 -5 98 -5z m-86 -86 c0 -15 10 -16 85 -10 47 4 85 5 85
2 0 -2 3 -11 6 -19 4 -12 -12 -16 -86 -21 -85 -7 -90 -9 -84 -28 5 -16 2 -19
-13 -16 -14 2 -19 15 -23 56 -5 45 -3 52 12 52 10 0 18 -7 18 -16z m2025 -58
c79 -30 90 -37 93 -60 3 -23 0 -26 -26 -26 -16 0 -63 -3 -105 -6 -74 -7 -77
-6 -77 15 0 16 6 21 25 21 19 0 25 5 25 21 0 12 -8 23 -19 26 -17 4 -27 43
-11 43 3 0 46 -15 95 -34z m128 20 c3 3 3 -3 0 -15 -5 -20 -32 -30 -34 -13 0
4 -2 15 -4 24 -3 14 0 16 15 8 9 -5 20 -7 23 -4z m-1963 -97 c12 -44 8 -53
-26 -63 -16 -5 -23 -2 -27 14 -3 13 0 20 9 20 8 0 14 7 14 15 0 16 -28 20 -45
7 -5 -4 -10 -20 -10 -37 0 -26 -5 -30 -38 -38 -51 -12 -65 -5 -73 39 -5 30 -3
40 11 51 25 17 34 17 42 -3 4 -10 0 -20 -10 -26 -26 -14 -20 -28 13 -28 28 0
29 2 27 37 -2 31 2 38 23 44 14 4 37 7 52 8 24 1 29 -4 38 -40z m1898 -94 c9
-3 10 -10 4 -22 -8 -13 -22 -16 -71 -14 -34 1 -61 0 -61 -3 0 -2 25 -12 55
-21 48 -14 66 -30 50 -47 -3 -2 -47 10 -98 27 -72 25 -92 37 -92 51 0 17 7 19
63 16 34 -2 62 -1 62 2 0 3 -24 12 -54 21 -43 13 -53 19 -49 34 4 17 10 16 91
-11 48 -16 93 -31 100 -33z m43 38 c-7 -28 -13 -29 -41 -12 -13 8 -12 11 4 24
31 24 45 19 37 -12z m-1908 -34 c-3 -16 -22 -40 -49 -60 -24 -18 -42 -34 -40
-36 2 -2 24 6 50 17 48 20 66 19 66 -3 0 -14 -176 -81 -190 -72 -19 11 -10 25
40 62 27 20 48 38 46 40 -1 2 -26 -7 -55 -19 -44 -18 -54 -19 -61 -7 -12 19
-9 21 98 60 50 18 92 38 92 43 0 5 2 7 4 5 2 -2 2 -16 -1 -30z m1723 -130 c62
-51 74 -64 68 -82 -4 -12 -8 -23 -9 -25 -2 -2 -194 48 -203 53 -1 1 0 10 4 19
5 12 14 16 29 12 14 -4 28 0 36 10 11 14 11 18 -4 29 -19 14 -23 45 -6 45 6 0
44 -27 85 -61z m-1672 -5 c6 -17 0 -34 -13 -34 -5 0 -41 -18 -81 -40 -67 -37
-74 -39 -85 -23 -12 16 -4 23 74 65 47 26 89 47 92 47 4 1 10 -6 13 -15z
m1769 2 c21 -17 23 -40 1 -32 -9 3 -20 6 -25 6 -5 0 -9 7 -9 16 0 8 -4 12 -10
9 -5 -3 -10 -1 -10 4 0 15 31 13 53 -3z m-1724 -42 c12 -20 20 -39 17 -42 -3
-2 -1 -13 4 -23 9 -15 -2 -26 -71 -75 l-82 -57 -38 41 c-22 23 -39 45 -39 50
0 5 23 19 50 30 28 12 50 25 50 30 0 5 14 12 31 16 22 4 34 14 42 36 6 16 12
30 13 30 1 0 12 -16 23 -36z m1557 -79 c35 -25 66 -50 69 -56 9 -13 -36 -79
-53 -79 -7 0 -22 5 -33 10 -16 9 -17 15 -8 31 8 17 13 18 25 8 11 -9 18 -9 26
-1 7 7 10 13 7 15 -53 40 -109 77 -118 77 -23 0 -10 -30 17 -36 41 -10 43 -13
26 -39 l-16 -25 -39 31 c-22 17 -39 35 -39 41 0 19 41 68 57 68 8 0 44 -20 79
-45z m-1456 -59 c0 -3 -6 -3 -12 -1 -7 2 -28 -8 -46 -24 -29 -25 -31 -29 -17
-41 13 -11 20 -9 45 15 24 23 32 26 45 15 13 -11 5 -21 -55 -77 -72 -67 -86
-89 -48 -78 17 6 20 4 15 -10 -4 -9 -7 -24 -7 -32 0 -24 -27 2 -47 45 l-17 35
32 27 c29 24 31 28 17 40 -13 11 -20 9 -46 -15 -26 -25 -31 -27 -44 -14 -13
12 -5 23 65 86 44 40 75 75 70 78 -6 3 -10 11 -10 16 0 5 14 -6 30 -24 17 -19
30 -37 30 -41z m1555 59 c17 -7 25 -14 18 -14 -6 -1 -13 -10 -15 -20 -3 -17
-7 -15 -38 15 -28 28 -31 34 -15 34 11 -1 34 -7 50 -15z m-150 -224 c-28 -29
-37 -33 -47 -22 -11 10 -8 16 11 32 l24 20 -21 19 c-15 14 -22 16 -29 7 -11
-15 -10 -78 1 -96 6 -9 5 -12 -2 -7 -6 3 -17 20 -26 36 -13 27 -13 30 2 30 15
1 15 2 0 11 -23 13 -23 28 -1 44 16 12 16 15 -7 33 l-25 21 -17 -22 c-14 -18
-19 -19 -29 -10 -10 10 -6 20 21 48 l34 35 73 -72 73 -73 -35 -34z m-116 -11
c30 -43 37 -60 28 -69 -16 -16 -19 -15 -68 23 -24 19 -45 33 -47 31 -2 -1 6
-21 17 -44 25 -47 26 -64 7 -80 -14 -12 -15 -11 -99 105 -32 44 -35 53 -22 64
12 10 20 3 46 -41 34 -54 53 -54 25 -1 -13 25 -13 32 -2 41 10 8 18 6 32 -10
10 -11 27 -25 38 -31 17 -9 17 -8 -2 18 -12 16 -30 40 -41 54 -15 19 -17 28
-8 38 13 16 22 6 96 -98z m-1191 69 l41 -30 -42 -52 c-23 -29 -51 -65 -63 -81
l-21 -29 -37 29 c-20 16 -36 37 -36 47 0 18 96 147 109 147 4 0 26 -14 49 -31z
m1082 -20 c0 -10 -34 -12 -43 -2 -4 3 -2 12 4 20 9 10 15 10 25 2 8 -6 14 -15
14 -20z m-985 -57 c-7 -15 -16 -45 -19 -67 -6 -37 -5 -39 9 -20 8 10 21 34 27
52 13 35 16 37 36 24 11 -6 4 -27 -32 -93 -52 -97 -56 -111 -21 -78 14 13 25
29 25 36 0 7 4 16 10 19 6 4 9 -20 7 -63 l-2 -70 -28 21 c-71 49 -79 62 -68
104 19 66 11 81 -13 28 -16 -35 -21 -57 -15 -72 6 -17 5 -21 -7 -16 -8 3 -13
11 -11 17 2 6 -3 16 -12 22 -13 10 -11 20 19 75 19 35 39 74 45 87 7 17 16 21
33 17 17 -4 22 -2 16 6 -4 7 -3 9 4 5 7 -4 6 -14 -3 -34z m920 -82 l45 -89
-43 -19 c-31 -14 -46 -16 -56 -8 -11 8 -7 13 18 23 28 12 30 15 19 38 -13 28
-19 30 -36 13 -9 -9 -15 -9 -23 -1 -13 13 -4 33 17 33 8 0 14 3 14 6 0 5 -19
45 -25 52 -2 2 -15 -4 -29 -13 -24 -16 -26 -16 -32 -1 -4 9 -5 18 -3 19 12 8
75 36 81 36 4 1 28 -39 53 -89z m-758 32 c-10 -2 -24 1 -31 7 -11 9 -15 6 -18
-14 -7 -37 24 -53 44 -23 10 15 19 19 30 12 14 -8 10 -20 -32 -89 -27 -44 -51
-83 -52 -87 -2 -4 -14 -5 -27 -1 -23 6 -23 8 -17 72 13 125 17 140 40 143 28
5 89 -15 63 -20z m635 -82 c15 -46 28 -90 28 -97 0 -30 -37 -10 -69 37 -19 28
-36 48 -38 46 -6 -6 26 -78 44 -98 9 -10 13 -21 10 -25 -4 -3 -7 -2 -7 4 0 6
-10 8 -23 6 -20 -4 -25 4 -53 91 -27 80 -29 96 -17 100 21 8 29 1 60 -51 33
-57 41 -43 13 26 l-20 52 22 -3 c17 -2 27 -19 50 -88z m-155 58 c-2 -7 9 -50
24 -95 16 -45 26 -90 22 -99 -4 -10 -2 -15 3 -11 6 3 16 1 24 -4 10 -7 1 -8
-30 -4 -25 3 -58 2 -75 -3 -23 -7 -33 -5 -42 7 -11 14 -12 13 -13 -6 0 -12 6
-23 13 -26 6 -2 -50 -5 -126 -6 -76 -1 -142 1 -148 4 -5 4 -3 18 6 34 26 52
44 174 26 185 -6 4 -11 12 -11 18 0 7 21 8 63 3 80 -9 72 -8 140 -2 48 4 56 3
47 -8 -8 -10 -8 -31 1 -79 6 -36 9 -73 5 -81 -4 -10 1 -15 15 -15 15 0 18 5
14 23 -27 123 -31 147 -24 147 4 0 14 3 22 6 12 4 17 -12 27 -80 9 -57 18 -86
26 -86 7 0 16 5 19 10 3 6 1 10 -6 10 -7 0 -9 3 -6 6 3 4 2 14 -3 23 -4 9 -11
37 -15 61 -4 25 -9 48 -11 52 -5 8 4 28 12 28 3 0 4 -6 1 -12z m-777 -48 c-13
-32 -25 -38 -33 -17 -5 12 33 61 41 52 3 -2 -1 -18 -8 -35z m443 21 c12 -12
-12 -167 -29 -181 -7 -6 -27 -7 -50 -2 -33 6 -40 12 -42 35 -4 36 -22 35 -22
-3 0 -17 7 -33 18 -39 31 -19 -10 -12 -46 7 l-33 18 26 28 c14 15 25 33 25 40
0 23 13 26 29 7 9 -10 23 -20 31 -23 8 -2 15 -13 15 -23 0 -10 5 -20 11 -22 6
-2 15 24 22 60 15 82 15 87 -4 87 -12 0 -15 -9 -12 -37 3 -35 1 -38 -21 -35
-14 1 -26 4 -28 6 -2 2 1 25 8 51 l12 47 40 -5 c22 -3 44 -10 50 -16z m691
-63 c-9 -14 -23 1 -44 45 l-19 42 34 -39 c19 -21 32 -43 29 -48z m-121 15 c4
-3 -2 -12 -13 -20 -24 -17 -26 -41 -5 -49 8 -4 12 -10 9 -15 -11 -18 -23 -8
-29 24 -4 17 -9 40 -11 50 -4 13 1 17 19 17 13 0 27 -3 30 -7z"/>
<path d="M1143 3074 c-30 -13 -32 -16 -22 -38 10 -21 14 -22 40 -13 20 8 25
14 18 23 -5 6 -7 19 -3 28 7 19 9 19 -33 0z"/>
<path d="M1727 3083 c-3 -21 -9 -53 -12 -70 -6 -27 -4 -33 9 -33 9 0 18 11 22
28 3 15 10 42 15 61 9 37 5 51 -15 51 -8 0 -16 -16 -19 -37z"/>
<path d="M1973 2961 c-28 -50 -30 -61 -18 -71 11 -9 19 -1 45 50 28 55 31 80
12 80 -4 0 -22 -27 -39 -59z"/>
<path d="M1402 2869 c-171 -30 -309 -104 -437 -233 -79 -79 -98 -105 -142
-196 -61 -125 -83 -217 -84 -348 0 -136 18 -220 75 -342 l24 -51 125 218 c68
120 175 306 237 413 62 107 157 272 211 365 54 94 103 170 110 170 6 0 53 -72
103 -160 51 -88 189 -326 306 -530 118 -203 225 -389 238 -413 44 -78 92 -73
-653 -70 -459 2 -665 0 -665 -8 0 -15 91 -125 145 -176 69 -64 184 -132 274
-161 415 -138 859 84 1004 500 26 76 31 106 35 218 4 111 1 144 -17 215 -88
347 -377 584 -726 595 -60 2 -134 0 -163 -6z m313 -31 c171 -37 370 -183 464
-341 84 -142 115 -269 108 -439 -4 -100 -10 -129 -37 -202 -34 -89 -53 -106
-70 -61 -5 14 -25 49 -45 77 -19 29 -35 60 -35 69 0 9 -9 24 -20 34 -22 20
-26 35 -10 35 6 0 10 -8 10 -17 0 -9 3 -13 8 -9 4 4 7 13 7 19 0 16 75 16 100
0 18 -11 23 -10 39 8 23 27 24 74 1 99 -15 17 -16 24 -5 49 6 17 8 36 4 43 -5
7 -7 23 -5 36 1 13 -6 33 -16 44 -10 11 -18 34 -18 50 0 27 -10 39 -43 54 -2
1 -5 20 -7 41 -2 22 -5 46 -7 54 -4 20 -49 41 -76 36 -19 -4 -22 -1 -16 17 9
29 9 28 0 54 -4 12 -12 22 -19 22 -6 0 -20 9 -32 20 -21 19 -65 18 -65 -2 0
-5 -4 -7 -9 -3 -5 3 -12 -4 -16 -15 -4 -11 -10 -18 -15 -15 -5 3 -12 -4 -15
-16 -4 -11 -9 -18 -11 -16 -7 7 19 60 35 73 12 9 11 12 -4 18 -21 8 -17 11
-44 -41 -24 -49 -26 -63 -7 -63 9 0 12 -8 9 -24 -3 -13 0 -27 7 -31 16 -10 25
2 12 18 -16 19 92 127 110 109 9 -9 6 -17 -12 -37 -19 -20 -21 -28 -12 -37 10
-10 17 -6 35 16 21 26 24 27 37 12 12 -15 7 -23 -40 -71 -42 -43 -57 -52 -67
-43 -11 9 -10 15 9 35 16 17 19 26 10 35 -8 8 -16 5 -31 -13 -27 -32 -26 -55
4 -75 14 -9 25 -22 25 -30 0 -7 10 -22 22 -34 12 -11 18 -20 14 -20 -5 0 -3
-7 4 -15 17 -21 33 -19 21 2 -7 13 -4 25 11 45 22 31 14 37 -14 11 -17 -15
-20 -15 -28 -3 -15 23 -13 26 38 55 26 15 54 34 63 42 15 12 19 10 38 -20 11
-19 21 -41 21 -48 0 -17 -56 -50 -73 -43 -16 6 -47 -56 -47 -92 0 -17 8 -27
25 -34 24 -9 25 -11 11 -33 -19 -27 -11 -64 15 -72 18 -6 18 -8 4 -28 -8 -12
-15 -32 -15 -44 0 -27 -18 -31 -27 -5 -3 9 -12 24 -19 32 -6 8 -25 40 -42 70
-25 46 -118 206 -152 260 -70 114 -97 159 -106 181 -7 15 -17 30 -23 33 -6 4
-9 11 -7 15 3 4 -5 19 -17 32 -12 13 -22 26 -22 29 0 3 -8 16 -17 30 -9 14
-24 41 -32 61 l-15 37 47 -4 c26 -3 70 -10 97 -16z m-249 -13 c-7 -11 -32 -54
-56 -95 -24 -41 -49 -79 -57 -83 -7 -4 -13 -15 -13 -23 0 -8 -12 -33 -27 -57
-39 -60 -51 -80 -59 -97 -4 -8 -12 -22 -19 -30 -7 -8 -28 -44 -48 -80 -72
-133 -108 -194 -137 -230 -17 -21 -30 -43 -30 -50 0 -6 -6 -10 -12 -7 -7 2
-12 11 -10 20 1 9 -5 28 -14 42 -9 14 -12 25 -6 25 6 0 16 9 22 21 15 26 -11
69 -41 69 -11 0 -43 10 -70 22 -43 18 -52 19 -64 7 -19 -19 -29 -97 -15 -114
8 -10 8 -21 -3 -42 -18 -35 -11 -90 13 -103 20 -11 139 -8 158 3 15 10 16 -9
1 -26 -11 -13 -37 -61 -88 -164 -42 -85 -54 -83 -87 17 -19 60 -21 71 -28 147
-2 29 -7 57 -11 63 -4 6 -4 28 0 48 4 20 9 55 10 77 2 22 6 49 9 60 3 11 10
40 16 65 6 25 17 54 24 65 7 11 16 32 19 47 4 15 13 33 20 40 7 7 27 36 45 65
18 28 44 59 58 67 13 9 24 22 24 29 0 19 151 132 163 121 2 -2 10 2 17 11 7 8
18 15 25 15 7 0 18 7 25 15 7 8 16 13 20 10 5 -3 11 -1 15 5 3 5 16 10 29 10
12 0 27 5 34 12 13 13 81 26 129 24 30 -1 31 -3 19 -21z m711 -487 c-7 -19
-140 -64 -145 -50 -7 22 -3 25 65 52 66 26 91 25 80 -2z m28 -96 c-3 -3 -29
-14 -58 -24 l-52 -17 60 2 c52 1 60 -2 63 -19 3 -18 -3 -19 -77 -16 -71 3 -80
6 -85 25 -3 12 -4 22 -3 22 1 1 34 15 72 32 59 26 71 29 78 16 5 -8 6 -17 2
-21z m-1345 13 c0 -15 9 -18 85 -33 25 -5 40 -13 40 -22 0 -16 -14 -17 -87 -5
-38 6 -47 4 -50 -9 -2 -9 -8 -12 -15 -8 -16 10 -5 92 13 92 8 0 14 -7 14 -15z
m56 -85 c9 0 13 -4 10 -9 -8 -12 -55 -20 -62 -10 -9 14 7 31 23 25 8 -3 21 -6
29 -6z m-53 -65 c-3 -8 -9 -15 -14 -15 -5 0 -9 -4 -9 -10 0 -5 9 -10 20 -10
15 0 20 7 20 25 0 20 6 25 36 31 45 8 56 -3 52 -52 -2 -31 -7 -39 -23 -39 -11
0 -21 8 -23 18 -2 10 3 17 12 17 9 0 16 5 16 10 0 6 -8 10 -19 10 -13 0 -20
-10 -25 -31 -5 -28 -8 -30 -43 -27 -37 3 -38 4 -41 45 -2 33 0 42 15 45 25 6
33 0 26 -17z m1358 1 c2 -3 3 -25 1 -50 -3 -34 -7 -43 -19 -39 -10 4 -13 14
-9 29 5 19 2 24 -14 24 -13 0 -20 -7 -20 -20 0 -11 -7 -20 -15 -20 -8 0 -15 9
-15 20 0 13 -7 20 -20 20 -17 0 -19 -4 -14 -26 6 -22 4 -25 -12 -22 -15 2 -19
12 -19 46 l0 42 76 0 c42 0 78 -2 80 -4z m-84 -435 c8 -1 5 -13 -8 -36 -12
-19 -25 -32 -30 -29 -5 3 -9 1 -9 -4 0 -5 -18 -28 -40 -51 -22 -23 -40 -39
-40 -35 0 3 -8 -3 -17 -14 -17 -20 -68 -51 -106 -65 -14 -5 -16 -3 -8 12 8 14
5 23 -9 39 -11 12 -20 28 -20 37 0 9 -6 18 -14 21 -7 3 -11 14 -9 28 4 18 -1
25 -19 31 -31 10 -58 6 -75 -11 -8 -8 -23 -14 -33 -14 -10 0 -22 -5 -25 -10
-4 -6 -14 -10 -23 -9 -10 2 -27 -1 -40 -5 -42 -14 -146 -13 -176 2 -15 7 -37
12 -47 9 -10 -3 -35 4 -56 14 -61 31 -79 26 -98 -28 -9 -27 -21 -58 -26 -71
-16 -41 -10 -53 36 -73 43 -19 46 -19 63 -3 16 17 17 17 20 -3 3 -23 20 -33
71 -40 45 -7 32 14 -15 23 -32 6 -34 8 -29 38 3 17 9 51 13 76 7 37 12 44 27
42 49 -7 65 -13 65 -27 0 -11 -8 -13 -30 -8 -24 4 -30 2 -30 -12 0 -9 9 -19
20 -22 11 -3 20 -12 20 -19 0 -10 -7 -13 -25 -8 -21 5 -25 3 -25 -15 0 -16 6
-21 24 -21 15 0 27 -7 29 -17 4 -11 5 -9 5 7 -2 44 2 83 7 79 2 -3 7 -29 10
-59 6 -61 3 -55 33 -64 13 -5 22 -3 22 3 0 6 -7 11 -15 11 -12 0 -15 14 -15
64 0 35 -3 72 -6 81 -6 14 0 16 42 13 49 -3 49 -3 52 -41 2 -21 -1 -44 -7 -50
-6 -8 -5 -18 5 -31 19 -26 18 -36 -4 -36 -11 0 -25 14 -35 33 l-17 32 3 -35
c2 -33 4 -35 40 -38 l37 -3 1 53 0 53 21 -42 c23 -45 55 -61 88 -43 16 8 20
21 20 58 l1 47 20 -37 c11 -21 26 -38 34 -38 9 0 12 -6 9 -15 -4 -8 -12 -15
-20 -15 -8 0 -14 -5 -14 -11 0 -6 -7 -9 -15 -5 -8 3 -15 1 -15 -3 0 -8 -13
-10 -100 -12 -14 0 -29 -4 -35 -9 -5 -4 -48 -7 -95 -5 -101 4 -254 42 -325 81
-75 42 -115 71 -108 78 4 3 -2 6 -13 6 -11 0 -39 22 -64 52 -25 29 -58 67 -73
84 l-28 33 58 3 c46 2 1142 1 1190 -1z m-330 -88 c2 -6 -5 -14 -17 -18 -22 -7
-24 -42 -2 -37 7 1 17 3 23 5 21 4 21 -21 0 -28 -32 -10 -15 -37 19 -30 45 10
44 -11 -1 -33 l-41 -20 -33 71 -32 72 31 16 c34 18 48 19 53 2z m-498 -14 c23
-8 31 -17 31 -35 0 -26 -1 -27 -24 -18 -9 3 -14 10 -11 14 3 5 1 11 -5 15 -6
3 -13 -1 -17 -11 -4 -11 2 -22 17 -34 19 -15 21 -21 13 -46 -16 -50 -93 -40
-93 12 0 22 2 23 20 14 11 -6 18 -15 15 -21 -4 -5 1 -9 9 -9 9 0 16 9 16 20 0
11 -6 20 -14 20 -23 0 -28 18 -16 55 13 39 14 39 59 24z m401 -100 c0 -76 -1
-79 -23 -79 -18 0 -29 13 -55 65 -37 76 -39 85 -13 85 13 0 22 -12 31 -45 17
-60 32 -68 24 -13 -3 24 -7 48 -9 55 -4 12 23 23 38 16 4 -2 7 -40 7 -84z"/>
<path d="M1860 2711 c14 -11 33 -23 42 -26 9 -3 19 -14 21 -23 4 -14 5 -14 6
-1 1 20 -36 55 -69 63 l-25 7 25 -20z"/>
<path d="M1816 2712 c-4 -7 -5 -21 -1 -31 3 -12 -4 -33 -20 -56 -30 -46 -32
-71 -4 -80 25 -8 39 2 15 11 -22 9 -20 20 15 77 17 27 26 53 21 56 -5 3 -11
13 -14 21 -3 10 -6 11 -12 2z"/>
<path d="M2060 2445 c-7 -8 -10 -19 -6 -22 9 -9 38 8 38 22 -1 16 -18 16 -32
0z"/>
<path d="M1135 2710 c-24 -27 -12 -37 19 -16 14 9 30 16 36 16 18 0 10 -29
-10 -35 -24 -8 -26 -23 -5 -31 39 -15 55 47 18 74 -24 17 -37 15 -58 -8z"/>
<path d="M1100 2663 c0 -17 82 -143 90 -138 10 6 -70 145 -82 145 -5 0 -8 -3
-8 -7z"/>
<path d="M1225 2640 c3 -6 -1 -13 -9 -16 -18 -7 -21 -30 -6 -39 6 -4 18 -1 26
6 12 10 17 10 27 -1 9 -10 9 -13 0 -17 -7 -3 -23 -13 -35 -23 -20 -17 -21 -19
-5 -20 10 0 29 12 42 26 l25 27 -28 33 c-25 30 -51 47 -37 24z"/>
<path d="M1032 2628 c-23 -23 -13 -56 28 -88 48 -38 51 -31 9 21 -25 32 -28
42 -19 59 12 22 1 27 -18 8z"/>
<path d="M1095 2583 c15 -27 35 -56 43 -65 12 -14 12 -20 2 -33 -7 -8 -17 -15
-22 -15 -7 0 -111 62 -126 75 -2 2 1 14 8 27 l11 23 -20 -24 c-12 -13 -21 -26
-21 -30 0 -11 133 -91 151 -91 27 0 49 38 39 66 -14 37 -60 102 -77 108 -10 4
-7 -8 12 -41z"/>
<path d="M950 2513 c0 -4 29 -28 64 -52 41 -28 63 -48 59 -57 -8 -21 -16 -18
-83 28 -36 25 -59 47 -56 55 3 7 1 13 -3 13 -5 0 -12 -8 -15 -17 -5 -12 1 -23
18 -35 13 -10 35 -28 48 -39 23 -20 23 -20 -17 1 -63 32 -85 24 -113 -43 -17
-41 -16 -43 32 -70 75 -42 106 -49 133 -32 12 9 23 24 23 34 0 10 7 24 15 31
8 7 12 16 9 21 -3 5 3 23 13 39 17 30 17 30 -7 54 -31 29 -120 81 -120 69z m0
-118 c17 -9 30 -20 30 -27 0 -6 11 -8 31 -4 25 5 30 3 27 -12 -2 -11 -16 -19
-43 -23 -39 -5 -39 -6 -12 -13 17 -5 27 -15 27 -27 0 -10 -4 -19 -9 -19 -12 0
-141 59 -141 65 0 2 8 20 17 40 19 39 30 42 73 20z"/>
<path d="M900 2360 c0 -16 38 -32 46 -19 7 12 -12 29 -33 29 -7 0 -13 -4 -13
-10z"/>
<path d="M1520 1475 c0 -17 5 -25 13 -22 6 2 12 12 12 22 0 10 -6 20 -12 23
-8 2 -13 -6 -13 -23z"/>
<path d="M1510 2660 c0 -8 -147 -263 -218 -380 -11 -17 -2 -12 29 16 70 67
102 79 199 79 101 0 147 -20 204 -86 20 -24 36 -39 36 -35 0 4 -35 67 -78 139
-44 73 -97 165 -118 204 -36 67 -54 88 -54 63z m84 -159 c36 -63 66 -119 66
-124 0 -5 -12 -1 -27 9 -23 16 -46 19 -129 18 l-102 0 42 80 c22 45 45 84 51
88 5 4 10 13 11 20 3 38 4 42 13 33 6 -6 39 -62 75 -124z"/>
<path d="M1420 2332 c-21 -17 -23 -22 -12 -43 l12 -24 -5 27 c-4 20 0 30 14
38 28 14 71 13 71 -3 0 -7 7 -22 15 -33 14 -17 14 -16 2 16 -11 28 -19 36 -43
38 -19 2 -40 -4 -54 -16z"/>
<path d="M1291 2231 c-28 -39 -26 -56 9 -81 38 -27 39 -17 3 15 l-28 23 22 29
c11 15 27 26 35 24 43 -13 65 -11 79 5 13 16 12 16 -8 4 -17 -11 -27 -11 -48
-2 -37 17 -41 16 -64 -17z"/>
<path d="M1454 2242 c-76 -36 -117 -120 -94 -196 25 -85 122 -141 202 -117
142 43 175 216 56 304 -38 28 -113 32 -164 9z m139 -17 c18 -8 42 -30 55 -48
39 -59 22 -164 -31 -188 -12 -5 -33 -16 -47 -24 -61 -35 -139 -6 -171 63 -26
55 -22 86 15 140 30 43 40 49 51 32 3 -5 1 -10 -5 -10 -18 0 -50 -64 -50 -102
0 -73 81 -127 158 -104 17 6 32 14 32 19 0 6 7 15 15 21 23 17 25 85 3 122
-18 31 -80 70 -96 60 -13 -8 -35 11 -28 23 10 16 62 14 99 -4z m-12 -74 c36
-37 38 -79 5 -118 -19 -22 -32 -28 -66 -28 -85 0 -119 97 -55 153 37 31 80 29
116 -7z"/>
<path d="M1236 2188 c-9 -12 -16 -26 -16 -30 0 -9 -176 -316 -192 -336 -6 -7
-9 -14 -7 -16 2 -2 109 -6 237 -8 128 -1 225 0 215 4 -10 3 -38 13 -63 22
-133 47 -212 208 -167 340 18 51 16 57 -7 24z m8 -247 c10 -18 38 -53 63 -77
l45 -44 -114 0 c-122 0 -158 6 -158 24 0 6 15 34 33 61 18 28 46 76 62 108
l30 57 11 -47 c6 -27 19 -63 28 -82z"/>
<path d="M1795 2171 c17 -50 19 -111 5 -161 -26 -94 -118 -183 -203 -197 -84
-13 -34 -18 189 -18 129 0 234 3 234 6 0 3 -45 84 -100 178 -55 95 -100 175
-100 179 0 4 -9 18 -20 32 l-20 25 15 -44z m115 -219 c65 -109 84 -152 60
-137 -5 3 -55 6 -112 7 -129 1 -132 2 -113 38 8 16 18 30 22 32 15 6 63 119
63 148 0 17 2 30 5 30 2 0 36 -53 75 -118z"/>
<path d="M1286 1980 c3 -3 22 -5 42 -5 33 0 37 -3 36 -25 -1 -14 -4 -34 -8
-45 -4 -11 1 -5 11 13 24 45 9 67 -45 67 -23 1 -39 -2 -36 -5z"/>
<path d="M1630 1935 c-7 -8 -10 -29 -8 -46 4 -28 1 -33 -29 -45 -41 -18 -44
-27 -3 -12 37 12 43 22 44 67 1 32 4 36 26 35 14 -1 34 -4 45 -8 13 -5 11 -2
-5 8 -32 20 -54 20 -70 1z"/>
<path d="M734 2785 c-4 -9 -5 -17 -3 -18 3 -1 25 -21 50 -45 37 -35 48 -40 57
-29 9 11 0 23 -43 61 -45 38 -56 44 -61 31z"/>
<path d="M2343 2632 c-25 -13 -30 -21 -23 -32 8 -12 15 -10 42 18 36 35 30 40
-19 14z"/>
<path d="M2463 2352 c-49 -12 -63 -20 -63 -34 0 -22 -4 -22 75 -2 51 13 65 20
65 35 0 11 -3 18 -7 18 -5 -1 -36 -8 -70 -17z"/>
<path d="M2460 1935 c0 -11 11 -15 43 -14 l42 1 -35 13 c-46 18 -50 18 -50 0z"/>
<path d="M2366 1663 c-13 -13 -5 -23 31 -38 48 -20 51 -14 10 18 -19 14 -37
23 -41 20z"/>
<path d="M708 1556 c-68 -52 -80 -64 -76 -77 3 -9 168 104 168 115 0 16 -47
-4 -92 -38z"/>
<path d="M910 1331 c-36 -50 -43 -72 -25 -77 15 -5 88 95 81 111 -9 24 -19 18
-56 -34z"/>
<path d="M1177 1158 c-3 -24 -4 -44 -2 -46 2 -2 13 14 24 36 18 35 19 41 5 46
-9 3 -17 6 -19 6 -1 0 -5 -19 -8 -42z"/>
<path d="M1471 1180 c-35 -35 -45 -62 -37 -95 24 -93 176 -83 176 12 0 41 -33
93 -60 93 -10 0 -22 5 -25 10 -10 16 -22 12 -54 -20z m102 -32 c22 -25 22 -66
0 -90 -36 -40 -123 -10 -123 43 0 69 77 99 123 47z"/>
<path d="M2135 967 c-49 -47 -53 -62 -29 -108 22 -44 68 -60 148 -52 55 5 69
3 86 -12 26 -23 25 -37 -3 -63 -28 -26 -35 -27 -57 -7 -15 14 -19 14 -40 -3
l-22 -18 32 -27 c40 -34 57 -34 107 2 56 40 70 78 47 126 -25 52 -67 69 -156
60 -48 -5 -73 -3 -83 5 -23 19 -18 48 11 67 21 14 29 14 46 4 16 -10 23 -10
36 1 9 7 19 14 21 15 3 2 -6 14 -19 28 -36 38 -71 33 -125 -18z"/>
<path d="M729 977 c-37 -25 -43 -44 -17 -60 13 -9 21 -7 36 6 10 9 25 17 32
17 23 0 59 -41 53 -59 -12 -33 -36 -41 -128 -41 -87 0 -92 -1 -116 -27 -55
-61 -56 -55 31 -122 44 -34 84 -60 90 -56 5 3 18 19 30 35 l21 29 -21 11 c-16
9 -25 8 -36 -1 -11 -9 -22 -6 -55 16 -36 26 -39 30 -24 44 12 13 34 15 106 13
l91 -4 39 42 c23 24 39 51 39 65 0 31 -45 84 -87 101 -42 18 -44 18 -84 -9z"/>
<path d="M900 794 c-43 -89 -45 -96 -27 -105 10 -6 28 -9 40 -8 34 4 65 -10
72 -32 8 -24 -25 -83 -49 -87 -24 -5 -66 25 -66 47 0 10 -11 23 -25 29 -22 10
-25 9 -30 -11 -8 -31 9 -73 38 -92 37 -24 85 -35 112 -25 34 13 67 66 73 115
4 39 1 48 -26 75 -18 18 -41 30 -56 30 -14 0 -26 2 -26 5 0 14 42 86 48 83 65
-32 82 -44 78 -55 -5 -11 31 -40 38 -31 8 11 28 69 25 72 -2 3 -40 21 -84 42
-44 21 -82 39 -85 41 -3 1 -25 -40 -50 -93z"/>
<path d="M1921 834 c-41 -19 -76 -36 -78 -37 -1 -2 0 -13 4 -25 4 -19 11 -22
32 -18 25 5 29 0 86 -124 57 -123 61 -129 85 -124 14 3 26 7 28 9 2 2 -10 30
-27 64 -17 33 -31 63 -31 66 0 14 27 1 80 -40 64 -49 68 -51 94 -32 16 11 11
17 -43 57 -34 24 -61 47 -61 51 0 3 7 12 15 19 21 17 19 63 -5 110 -36 71 -70
75 -179 24z m129 -46 c11 -18 20 -39 20 -46 0 -11 -56 -52 -71 -52 -7 0 -54
99 -48 103 11 8 55 26 67 26 7 1 21 -14 32 -31z"/>
<path d="M1707 765 c-58 -16 -58 -15 -51 -42 4 -16 13 -21 32 -20 l26 2 4
-150 c2 -82 5 -151 7 -153 1 -1 13 1 25 6 19 7 24 16 24 52 1 41 2 43 44 55
l43 13 20 -40 c17 -33 24 -39 42 -34 12 3 25 6 28 6 3 0 -30 72 -75 160 -89
176 -81 169 -169 145z m101 -127 c18 -39 31 -72 30 -73 -2 -2 -18 -6 -35 -10
l-33 -7 0 44 c0 24 -3 60 -6 81 -10 57 8 44 44 -35z"/>
<path d="M1246 682 c-8 -86 1 -122 34 -145 19 -13 21 -21 14 -74 -6 -59 -6
-60 19 -65 29 -6 37 10 37 78 0 38 3 42 30 47 35 8 55 42 65 112 3 28 9 62 11
78 5 24 3 27 -24 27 -28 0 -29 -2 -35 -60 -9 -83 -20 -102 -60 -98 l-32 3 2
88 1 87 -28 0 c-27 0 -28 -1 -34 -78z"/>
<path d="M1512 743 l-43 -4 6 -112 c3 -62 8 -140 11 -174 l6 -63 46 0 c26 0
64 3 85 6 31 6 37 11 37 30 0 23 -4 24 -59 24 -58 0 -59 1 -63 30 -6 38 -4 40
49 40 41 0 43 1 43 31 0 31 0 31 -47 27 l-48 -3 0 60 0 60 53 3 c48 3 52 5 52
28 0 26 -10 27 -128 17z"/>
</g>
</svg>
